<svg width="14" height="20" viewBox="0 0 14 20" fill="none" xmlns="http://www.w3.org/2000/svg">
    <path d="M11.2143 8.98599C10.8918 8.73065 10.4638 8.64643 9.91185 8.72488C9.85874 7.98377 9.60496 7.24932 8.61229 7.1531C8.1334 7.10665 7.79474 7.20265 7.58696 7.29577C7.32251 6.45932 6.73385 6.25332 6.21874 6.25332C5.79429 6.25332 5.4734 6.30688 5.24762 6.3651V2.76088C5.24762 1.6011 4.68607 0.962433 3.66629 0.962433C2.64696 0.962433 2.0854 1.6011 2.0854 2.76088V9.23643C1.92385 9.21977 1.74607 9.20977 1.59696 9.2111C1.01607 9.21932 0.292736 9.51132 0.14718 10.8495C0.142069 10.8884 0.0214024 11.8131 0.00162458 13.0389C-0.0254865 14.7187 0.28718 16.1175 0.905625 17.0844C2.0254 18.8351 3.52785 19.4675 3.68896 19.5313C3.81118 19.5889 4.73162 20 6.32985 20C8.0194 20 9.13607 19.4155 9.25873 19.3487C9.4674 19.2489 11.9418 17.9747 11.9418 13.7471C11.9418 12.3718 11.9183 11.7529 11.8467 10.5922C11.7974 9.79888 11.5965 9.28843 11.2143 8.98599ZM9.02162 18.8604L9.00162 18.8707C8.99118 18.8764 7.94274 19.4573 6.32985 19.4573C4.78629 19.4573 3.92674 19.0433 3.91896 19.0393L3.89429 19.0287C3.87985 19.0231 2.42674 18.4549 1.36296 16.7918C0.810069 15.9273 0.519625 14.598 0.544514 13.0475C0.563625 11.8549 0.684069 10.9298 0.686069 10.9144C0.798291 9.88377 1.26407 9.75843 1.60474 9.75354C1.76118 9.74954 1.94274 9.76354 2.08562 9.7811V13.1435H2.62829V2.76088C2.62829 1.64777 3.18318 1.5051 3.66651 1.5051C4.15007 1.5051 4.70496 1.64799 4.70496 2.76088V9.4631H5.24762V6.93065C5.41629 6.87443 5.73785 6.79554 6.21874 6.79554C6.4834 6.79554 7.18629 6.79554 7.18629 8.37377V10.6653H7.72896V8.37377C7.72896 8.18177 7.7174 8.00888 7.69896 7.84888C7.75251 7.81199 8.03162 7.64221 8.55985 7.69332C9.0674 7.74265 9.38229 7.99599 9.38229 9.1051V11.514H9.92496V9.27065C10.3554 9.19977 10.6674 9.2451 10.8774 9.41154C11.1265 9.60865 11.2663 10.006 11.3047 10.626C11.3705 11.6898 11.3992 12.3067 11.3992 13.7473C11.3992 17.7007 9.11807 18.8153 9.02162 18.8604Z" fill="#474747"/>
    <path d="M12.4052 0L12.0214 0.383778L12.5827 0.945111H8.39007L8.95185 0.383778L8.56807 0L7.35162 1.21644L8.56807 2.43289L8.95185 2.04933L8.39007 1.48778H12.5832L12.0214 2.04933L12.4052 2.43289L13.6216 1.21667L12.4052 0Z" fill="#474747"/>
</svg>
